M48
; DRILL file {KiCad (5.1.4)-1} date 2/09/2019 11:07:32 AM
; FORMAT={-:-/ absolute / inch / decimal}
; #@! TF.CreationDate,2019-09-02T11:07:32+10:00
; #@! TF.GenerationSoftware,Kicad,Pcbnew,(5.1.4)-1
; #@! TF.FileFunction,Plated,1,2,PTH
FMAT,2
INCH
T1C0.0197
T2C0.0315
T3C0.0472
T4C0.0984
T5C0.1378
%
G90
G05
T1
X2.7762Y-3.85
X2.7978Y-3.7978
X2.7978Y-3.9022
X2.85Y-3.7762
X2.85Y-3.9238
X2.9022Y-3.7978
X2.9022Y-3.9022
X2.9238Y-3.85
X2.1967Y-3.15
X2.2269Y-3.0769
X2.2269Y-3.2231
X2.3Y-3.0467
X2.3Y-3.2533
X2.3731Y-3.0769
X2.3731Y-3.2231
X2.4033Y-3.15
X2.7762Y-4.2
X2.7978Y-4.1478
X2.7978Y-4.2522
X2.85Y-4.1262
X2.85Y-4.2738
X2.9022Y-4.1478
X2.9022Y-4.2522
X2.9238Y-4.2
X5.2467Y-4.75
X5.2769Y-4.6769
X5.2769Y-4.8231
X5.35Y-4.6467
X5.35Y-4.8533
X5.4231Y-4.6769
X5.4231Y-4.8231
X5.4533Y-4.75
X2.1967Y-4.2
X2.2269Y-4.1269
X2.2269Y-4.2731
X2.3Y-4.0967
X2.3Y-4.3033
X2.3731Y-4.1269
X2.3731Y-4.2731
X2.4033Y-4.2
X5.2762Y-4.25
X5.2978Y-4.1978
X5.2978Y-4.3022
X5.35Y-4.1762
X5.35Y-4.3238
X5.4022Y-4.1978
X5.4022Y-4.3022
X5.4238Y-4.25
X6.2762Y-4.25
X6.2978Y-4.1978
X6.2978Y-4.3022
X6.35Y-4.1762
X6.35Y-4.3238
X6.4022Y-4.1978
X6.4022Y-4.3022
X6.4238Y-4.25
X4.7467Y-4.75
X4.7769Y-4.6769
X4.7769Y-4.8231
X4.85Y-4.6467
X4.85Y-4.8533
X4.9231Y-4.6769
X4.9231Y-4.8231
X4.9533Y-4.75
X5.7467Y-4.75
X5.7769Y-4.6769
X5.7769Y-4.8231
X5.85Y-4.6467
X5.85Y-4.8533
X5.9231Y-4.6769
X5.9231Y-4.8231
X5.9533Y-4.75
X4.2467Y-4.75
X4.2769Y-4.6769
X4.2769Y-4.8231
X4.35Y-4.6467
X4.35Y-4.8533
X4.4231Y-4.6769
X4.4231Y-4.8231
X4.4533Y-4.75
X5.7762Y-4.25
X5.7978Y-4.1978
X5.7978Y-4.3022
X5.85Y-4.1762
X5.85Y-4.3238
X5.9022Y-4.1978
X5.9022Y-4.3022
X5.9238Y-4.25
X2.1967Y-4.55
X2.2269Y-4.4769
X2.2269Y-4.6231
X2.3Y-4.4467
X2.3Y-4.6533
X2.3731Y-4.4769
X2.3731Y-4.6231
X2.4033Y-4.55
X4.7762Y-4.25
X4.7978Y-4.1978
X4.7978Y-4.3022
X4.85Y-4.1762
X4.85Y-4.3238
X4.9022Y-4.1978
X4.9022Y-4.3022
X4.9238Y-4.25
X2.1967Y-3.85
X2.2269Y-3.7769
X2.2269Y-3.9231
X2.3Y-3.7467
X2.3Y-3.9533
X2.3731Y-3.7769
X2.3731Y-3.9231
X2.4033Y-3.85
X2.7762Y-4.55
X2.7978Y-4.4978
X2.7978Y-4.6022
X2.85Y-4.4762
X2.85Y-4.6238
X2.9022Y-4.4978
X2.9022Y-4.6022
X2.9238Y-4.55
X4.2762Y-4.25
X4.2978Y-4.1978
X4.2978Y-4.3022
X4.35Y-4.1762
X4.35Y-4.3238
X4.4022Y-4.1978
X4.4022Y-4.3022
X4.4238Y-4.25
X2.7762Y-3.5
X2.7978Y-3.4478
X2.7978Y-3.5522
X2.85Y-3.4262
X2.85Y-3.5738
X2.9022Y-3.4478
X2.9022Y-3.5522
X2.9238Y-3.5
X2.1967Y-3.5
X2.2269Y-3.4269
X2.2269Y-3.5731
X2.3Y-3.3967
X2.3Y-3.6033
X2.3731Y-3.4269
X2.3731Y-3.5731
X2.4033Y-3.5
X6.2467Y-4.75
X6.2769Y-4.6769
X6.2769Y-4.8231
X6.35Y-4.6467
X6.35Y-4.8533
X6.4231Y-4.6769
X6.4231Y-4.8231
X6.4533Y-4.75
X2.7762Y-3.15
X2.7978Y-3.0978
X2.7978Y-3.2022
X2.85Y-3.0762
X2.85Y-3.2238
X2.9022Y-3.0978
X2.9022Y-3.2022
X2.9238Y-3.15
T2
X5.35Y-3.7
X5.35Y-3.8969
X4.35Y-3.7
X4.35Y-3.8969
X4.85Y-3.7
X4.85Y-3.8969
X5.85Y-3.7
X5.85Y-3.8969
X6.35Y-3.7
X6.35Y-3.8969
T3
X3.4Y-4.5
X3.15Y-3.5
X3.95Y-3.5
X3.15Y-4.2
X3.95Y-4.2
X3.15Y-3.15
X3.95Y-3.15
X3.15Y-4.55
X3.95Y-4.55
X3.4Y-3.1
X3.15Y-3.85
X3.95Y-3.85
X3.4Y-4.15
X3.4Y-3.45
X3.4Y-3.8
T4
X2.85Y-4.55
X4.35Y-4.25
X2.85Y-3.5
X2.85Y-3.15
X2.85Y-3.85
X2.85Y-4.2
X5.35Y-4.25
X6.35Y-4.25
X5.85Y-4.25
X4.85Y-4.25
T5
X5.35Y-4.75
X2.3Y-4.2
X4.85Y-4.75
X5.85Y-4.75
X4.35Y-4.75
X2.3Y-3.85
X2.3Y-3.5
X2.3Y-3.15
X2.3Y-4.55
X6.35Y-4.75
T0
M30
