G04 #@! TF.GenerationSoftware,KiCad,Pcbnew,(5.1.4)-1*
G04 #@! TF.CreationDate,2019-09-01T08:56:02+10:00*
G04 #@! TF.ProjectId,RGB BNC,52474220-424e-4432-9e6b-696361645f70,rev?*
G04 #@! TF.SameCoordinates,Original*
G04 #@! TF.FileFunction,Soldermask,Top*
G04 #@! TF.FilePolarity,Negative*
%FSLAX46Y46*%
G04 Gerber Fmt 4.6, Leading zero omitted, Abs format (unit mm)*
G04 Created by KiCad (PCBNEW (5.1.4)-1) date 2019-09-01 08:56:02*
%MOMM*%
%LPD*%
G04 APERTURE LIST*
%ADD10C,0.100000*%
G04 APERTURE END LIST*
D10*
G36*
X155319487Y-121938996D02*
G01*
X155556253Y-122037068D01*
X155556255Y-122037069D01*
X155660142Y-122106484D01*
X155769339Y-122179447D01*
X155950553Y-122360661D01*
X156092932Y-122573747D01*
X156191004Y-122810513D01*
X156241000Y-123061861D01*
X156241000Y-123318139D01*
X156191004Y-123569487D01*
X156147435Y-123674671D01*
X156092931Y-123806255D01*
X155950553Y-124019339D01*
X155769339Y-124200553D01*
X155556255Y-124342931D01*
X155556254Y-124342932D01*
X155556253Y-124342932D01*
X155319487Y-124441004D01*
X155068139Y-124491000D01*
X154811861Y-124491000D01*
X154560513Y-124441004D01*
X154323747Y-124342932D01*
X154323746Y-124342932D01*
X154323745Y-124342931D01*
X154110661Y-124200553D01*
X153929447Y-124019339D01*
X153787069Y-123806255D01*
X153732565Y-123674671D01*
X153688996Y-123569487D01*
X153639000Y-123318139D01*
X153639000Y-123061861D01*
X153688996Y-122810513D01*
X153787068Y-122573747D01*
X153929447Y-122360661D01*
X154110661Y-122179447D01*
X154219858Y-122106484D01*
X154323745Y-122037069D01*
X154323747Y-122037068D01*
X154560513Y-121938996D01*
X154811861Y-121889000D01*
X155068139Y-121889000D01*
X155319487Y-121938996D01*
X155319487Y-121938996D01*
G37*
G36*
X117219487Y-121938996D02*
G01*
X117456253Y-122037068D01*
X117456255Y-122037069D01*
X117560142Y-122106484D01*
X117669339Y-122179447D01*
X117850553Y-122360661D01*
X117992932Y-122573747D01*
X118091004Y-122810513D01*
X118141000Y-123061861D01*
X118141000Y-123318139D01*
X118091004Y-123569487D01*
X118047435Y-123674671D01*
X117992931Y-123806255D01*
X117850553Y-124019339D01*
X117669339Y-124200553D01*
X117456255Y-124342931D01*
X117456254Y-124342932D01*
X117456253Y-124342932D01*
X117219487Y-124441004D01*
X116968139Y-124491000D01*
X116711861Y-124491000D01*
X116460513Y-124441004D01*
X116223747Y-124342932D01*
X116223746Y-124342932D01*
X116223745Y-124342931D01*
X116010661Y-124200553D01*
X115829447Y-124019339D01*
X115687069Y-123806255D01*
X115632565Y-123674671D01*
X115588996Y-123569487D01*
X115539000Y-123318139D01*
X115539000Y-123061861D01*
X115588996Y-122810513D01*
X115687068Y-122573747D01*
X115829447Y-122360661D01*
X116010661Y-122179447D01*
X116119858Y-122106484D01*
X116223745Y-122037069D01*
X116223747Y-122037068D01*
X116460513Y-121938996D01*
X116711861Y-121889000D01*
X116968139Y-121889000D01*
X117219487Y-121938996D01*
X117219487Y-121938996D01*
G37*
G36*
X124225787Y-117235462D02*
G01*
X124265781Y-117252028D01*
X124872029Y-117503144D01*
X125453631Y-117891758D01*
X125948242Y-118386369D01*
X126336856Y-118967971D01*
X126451541Y-119244845D01*
X126604538Y-119614213D01*
X126741000Y-120300256D01*
X126741000Y-120999744D01*
X126604538Y-121685787D01*
X126604537Y-121685789D01*
X126336856Y-122332029D01*
X125948242Y-122913631D01*
X125453631Y-123408242D01*
X124872029Y-123796856D01*
X124415068Y-123986135D01*
X124225787Y-124064538D01*
X123539744Y-124201000D01*
X122840256Y-124201000D01*
X122154213Y-124064538D01*
X121964932Y-123986135D01*
X121507971Y-123796856D01*
X120926369Y-123408242D01*
X120431758Y-122913631D01*
X120043144Y-122332029D01*
X119775463Y-121685789D01*
X119775462Y-121685787D01*
X119639000Y-120999744D01*
X119639000Y-120300256D01*
X119775462Y-119614213D01*
X119928459Y-119244845D01*
X120043144Y-118967971D01*
X120431758Y-118386369D01*
X120926369Y-117891758D01*
X121507971Y-117503144D01*
X122114219Y-117252028D01*
X122154213Y-117235462D01*
X122840256Y-117099000D01*
X123539744Y-117099000D01*
X124225787Y-117235462D01*
X124225787Y-117235462D01*
G37*
G36*
X111525787Y-117235462D02*
G01*
X111565781Y-117252028D01*
X112172029Y-117503144D01*
X112753631Y-117891758D01*
X113248242Y-118386369D01*
X113636856Y-118967971D01*
X113751541Y-119244845D01*
X113904538Y-119614213D01*
X114041000Y-120300256D01*
X114041000Y-120999744D01*
X113904538Y-121685787D01*
X113904537Y-121685789D01*
X113636856Y-122332029D01*
X113248242Y-122913631D01*
X112753631Y-123408242D01*
X112172029Y-123796856D01*
X111715068Y-123986135D01*
X111525787Y-124064538D01*
X110839744Y-124201000D01*
X110140256Y-124201000D01*
X109454213Y-124064538D01*
X109264932Y-123986135D01*
X108807971Y-123796856D01*
X108226369Y-123408242D01*
X107731758Y-122913631D01*
X107343144Y-122332029D01*
X107075463Y-121685789D01*
X107075462Y-121685787D01*
X106939000Y-120999744D01*
X106939000Y-120300256D01*
X107075462Y-119614213D01*
X107228459Y-119244845D01*
X107343144Y-118967971D01*
X107731758Y-118386369D01*
X108226369Y-117891758D01*
X108807971Y-117503144D01*
X109414219Y-117252028D01*
X109454213Y-117235462D01*
X110140256Y-117099000D01*
X110839744Y-117099000D01*
X111525787Y-117235462D01*
X111525787Y-117235462D01*
G37*
G36*
X162325787Y-117235462D02*
G01*
X162365781Y-117252028D01*
X162972029Y-117503144D01*
X163553631Y-117891758D01*
X164048242Y-118386369D01*
X164436856Y-118967971D01*
X164551541Y-119244845D01*
X164704538Y-119614213D01*
X164841000Y-120300256D01*
X164841000Y-120999744D01*
X164704538Y-121685787D01*
X164704537Y-121685789D01*
X164436856Y-122332029D01*
X164048242Y-122913631D01*
X163553631Y-123408242D01*
X162972029Y-123796856D01*
X162515068Y-123986135D01*
X162325787Y-124064538D01*
X161639744Y-124201000D01*
X160940256Y-124201000D01*
X160254213Y-124064538D01*
X160064932Y-123986135D01*
X159607971Y-123796856D01*
X159026369Y-123408242D01*
X158531758Y-122913631D01*
X158143144Y-122332029D01*
X157875463Y-121685789D01*
X157875462Y-121685787D01*
X157739000Y-120999744D01*
X157739000Y-120300256D01*
X157875462Y-119614213D01*
X158028459Y-119244845D01*
X158143144Y-118967971D01*
X158531758Y-118386369D01*
X159026369Y-117891758D01*
X159607971Y-117503144D01*
X160214219Y-117252028D01*
X160254213Y-117235462D01*
X160940256Y-117099000D01*
X161639744Y-117099000D01*
X162325787Y-117235462D01*
X162325787Y-117235462D01*
G37*
G36*
X149625787Y-117235462D02*
G01*
X149665781Y-117252028D01*
X150272029Y-117503144D01*
X150853631Y-117891758D01*
X151348242Y-118386369D01*
X151736856Y-118967971D01*
X151851541Y-119244845D01*
X152004538Y-119614213D01*
X152141000Y-120300256D01*
X152141000Y-120999744D01*
X152004538Y-121685787D01*
X152004537Y-121685789D01*
X151736856Y-122332029D01*
X151348242Y-122913631D01*
X150853631Y-123408242D01*
X150272029Y-123796856D01*
X149815068Y-123986135D01*
X149625787Y-124064538D01*
X148939744Y-124201000D01*
X148240256Y-124201000D01*
X147554213Y-124064538D01*
X147364932Y-123986135D01*
X146907971Y-123796856D01*
X146326369Y-123408242D01*
X145831758Y-122913631D01*
X145443144Y-122332029D01*
X145175463Y-121685789D01*
X145175462Y-121685787D01*
X145039000Y-120999744D01*
X145039000Y-120300256D01*
X145175462Y-119614213D01*
X145328459Y-119244845D01*
X145443144Y-118967971D01*
X145831758Y-118386369D01*
X146326369Y-117891758D01*
X146907971Y-117503144D01*
X147514219Y-117252028D01*
X147554213Y-117235462D01*
X148240256Y-117099000D01*
X148939744Y-117099000D01*
X149625787Y-117235462D01*
X149625787Y-117235462D01*
G37*
G36*
X136925787Y-117235462D02*
G01*
X136965781Y-117252028D01*
X137572029Y-117503144D01*
X138153631Y-117891758D01*
X138648242Y-118386369D01*
X139036856Y-118967971D01*
X139151541Y-119244845D01*
X139304538Y-119614213D01*
X139441000Y-120300256D01*
X139441000Y-120999744D01*
X139304538Y-121685787D01*
X139304537Y-121685789D01*
X139036856Y-122332029D01*
X138648242Y-122913631D01*
X138153631Y-123408242D01*
X137572029Y-123796856D01*
X137115068Y-123986135D01*
X136925787Y-124064538D01*
X136239744Y-124201000D01*
X135540256Y-124201000D01*
X134854213Y-124064538D01*
X134664932Y-123986135D01*
X134207971Y-123796856D01*
X133626369Y-123408242D01*
X133131758Y-122913631D01*
X132743144Y-122332029D01*
X132475463Y-121685789D01*
X132475462Y-121685787D01*
X132339000Y-120999744D01*
X132339000Y-120300256D01*
X132475462Y-119614213D01*
X132628459Y-119244845D01*
X132743144Y-118967971D01*
X133131758Y-118386369D01*
X133626369Y-117891758D01*
X134207971Y-117503144D01*
X134814219Y-117252028D01*
X134854213Y-117235462D01*
X135540256Y-117099000D01*
X136239744Y-117099000D01*
X136925787Y-117235462D01*
X136925787Y-117235462D01*
G37*
G36*
X66419487Y-119398996D02*
G01*
X66656253Y-119497068D01*
X66656255Y-119497069D01*
X66831571Y-119614211D01*
X66869339Y-119639447D01*
X67050553Y-119820661D01*
X67192932Y-120033747D01*
X67291004Y-120270513D01*
X67341000Y-120521861D01*
X67341000Y-120778139D01*
X67291004Y-121029487D01*
X67282643Y-121049671D01*
X67192931Y-121266255D01*
X67050553Y-121479339D01*
X66869339Y-121660553D01*
X66656255Y-121802931D01*
X66656254Y-121802932D01*
X66656253Y-121802932D01*
X66419487Y-121901004D01*
X66168139Y-121951000D01*
X65911861Y-121951000D01*
X65660513Y-121901004D01*
X65423747Y-121802932D01*
X65423746Y-121802932D01*
X65423745Y-121802931D01*
X65210661Y-121660553D01*
X65029447Y-121479339D01*
X64887069Y-121266255D01*
X64797357Y-121049671D01*
X64788996Y-121029487D01*
X64739000Y-120778139D01*
X64739000Y-120521861D01*
X64788996Y-120270513D01*
X64887068Y-120033747D01*
X65029447Y-119820661D01*
X65210661Y-119639447D01*
X65248429Y-119614211D01*
X65423745Y-119497069D01*
X65423747Y-119497068D01*
X65660513Y-119398996D01*
X65911861Y-119349000D01*
X66168139Y-119349000D01*
X66419487Y-119398996D01*
X66419487Y-119398996D01*
G37*
G36*
X91371000Y-120181000D02*
G01*
X88969000Y-120181000D01*
X88969000Y-118579000D01*
X91371000Y-118579000D01*
X91371000Y-120181000D01*
X91371000Y-120181000D01*
G37*
G36*
X59455787Y-112155462D02*
G01*
X59455790Y-112155463D01*
X59455789Y-112155463D01*
X60102029Y-112423144D01*
X60683631Y-112811758D01*
X61178242Y-113306369D01*
X61566856Y-113887971D01*
X61681541Y-114164845D01*
X61834538Y-114534213D01*
X61971000Y-115220256D01*
X61971000Y-115919744D01*
X61834538Y-116605787D01*
X61804369Y-116678622D01*
X61566856Y-117252029D01*
X61178242Y-117833631D01*
X60683631Y-118328242D01*
X60102029Y-118716856D01*
X60023400Y-118749425D01*
X59455787Y-118984538D01*
X58769744Y-119121000D01*
X58070256Y-119121000D01*
X57384213Y-118984538D01*
X56816600Y-118749425D01*
X56737971Y-118716856D01*
X56156369Y-118328242D01*
X55661758Y-117833631D01*
X55273144Y-117252029D01*
X55035631Y-116678622D01*
X55005462Y-116605787D01*
X54869000Y-115919744D01*
X54869000Y-115220256D01*
X55005462Y-114534213D01*
X55158459Y-114164845D01*
X55273144Y-113887971D01*
X55661758Y-113306369D01*
X56156369Y-112811758D01*
X56737971Y-112423144D01*
X57384211Y-112155463D01*
X57384210Y-112155463D01*
X57384213Y-112155462D01*
X58070256Y-112019000D01*
X58769744Y-112019000D01*
X59455787Y-112155462D01*
X59455787Y-112155462D01*
G37*
G36*
X73134098Y-113117033D02*
G01*
X73591199Y-113306370D01*
X73598352Y-113309333D01*
X74016168Y-113588509D01*
X74371491Y-113943832D01*
X74542493Y-114199755D01*
X74650668Y-114361650D01*
X74842967Y-114825902D01*
X74941000Y-115318747D01*
X74941000Y-115821253D01*
X74842967Y-116314098D01*
X74691976Y-116678623D01*
X74650667Y-116778352D01*
X74371491Y-117196168D01*
X74016168Y-117551491D01*
X73598352Y-117830667D01*
X73598351Y-117830668D01*
X73598350Y-117830668D01*
X73134098Y-118022967D01*
X72641253Y-118121000D01*
X72138747Y-118121000D01*
X71645902Y-118022967D01*
X71181650Y-117830668D01*
X71181649Y-117830668D01*
X71181648Y-117830667D01*
X70763832Y-117551491D01*
X70408509Y-117196168D01*
X70129333Y-116778352D01*
X70088024Y-116678623D01*
X69937033Y-116314098D01*
X69839000Y-115821253D01*
X69839000Y-115318747D01*
X69937033Y-114825902D01*
X70129332Y-114361650D01*
X70237507Y-114199755D01*
X70408509Y-113943832D01*
X70763832Y-113588509D01*
X71181648Y-113309333D01*
X71188801Y-113306370D01*
X71645902Y-113117033D01*
X72138747Y-113019000D01*
X72641253Y-113019000D01*
X73134098Y-113117033D01*
X73134098Y-113117033D01*
G37*
G36*
X100575239Y-114337101D02*
G01*
X100811053Y-114408634D01*
X101028381Y-114524799D01*
X101218871Y-114681129D01*
X101375201Y-114871619D01*
X101491366Y-115088947D01*
X101562899Y-115324761D01*
X101587053Y-115570000D01*
X101562899Y-115815239D01*
X101491366Y-116051053D01*
X101375201Y-116268381D01*
X101218871Y-116458871D01*
X101028381Y-116615201D01*
X100811053Y-116731366D01*
X100575239Y-116802899D01*
X100391457Y-116821000D01*
X100268543Y-116821000D01*
X100084761Y-116802899D01*
X99848947Y-116731366D01*
X99631619Y-116615201D01*
X99441129Y-116458871D01*
X99284799Y-116268381D01*
X99168634Y-116051053D01*
X99097101Y-115815239D01*
X99072947Y-115570000D01*
X99097101Y-115324761D01*
X99168634Y-115088947D01*
X99284799Y-114871619D01*
X99441129Y-114681129D01*
X99631619Y-114524799D01*
X99848947Y-114408634D01*
X100084761Y-114337101D01*
X100268543Y-114319000D01*
X100391457Y-114319000D01*
X100575239Y-114337101D01*
X100575239Y-114337101D01*
G37*
G36*
X80374903Y-114367075D02*
G01*
X80510433Y-114423213D01*
X80602571Y-114461378D01*
X80807466Y-114598285D01*
X80981715Y-114772534D01*
X81118622Y-114977429D01*
X81212925Y-115205097D01*
X81261000Y-115446787D01*
X81261000Y-115693213D01*
X81212925Y-115934903D01*
X81118622Y-116162571D01*
X80981715Y-116367466D01*
X80807466Y-116541715D01*
X80602571Y-116678622D01*
X80602570Y-116678623D01*
X80602569Y-116678623D01*
X80374903Y-116772925D01*
X80133214Y-116821000D01*
X79886786Y-116821000D01*
X79645097Y-116772925D01*
X79417431Y-116678623D01*
X79417430Y-116678623D01*
X79417429Y-116678622D01*
X79212534Y-116541715D01*
X79038285Y-116367466D01*
X78901378Y-116162571D01*
X78807075Y-115934903D01*
X78759000Y-115693213D01*
X78759000Y-115446787D01*
X78807075Y-115205097D01*
X78901378Y-114977429D01*
X79038285Y-114772534D01*
X79212534Y-114598285D01*
X79417429Y-114461378D01*
X79509568Y-114423213D01*
X79645097Y-114367075D01*
X79886786Y-114319000D01*
X80133214Y-114319000D01*
X80374903Y-114367075D01*
X80374903Y-114367075D01*
G37*
G36*
X86621727Y-113076552D02*
G01*
X86724903Y-113097075D01*
X86952571Y-113191378D01*
X87157466Y-113328285D01*
X87331715Y-113502534D01*
X87443228Y-113669425D01*
X87468623Y-113707431D01*
X87562925Y-113935097D01*
X87611000Y-114176786D01*
X87611000Y-114423214D01*
X87562925Y-114664903D01*
X87468622Y-114892571D01*
X87331715Y-115097466D01*
X87157466Y-115271715D01*
X86952571Y-115408622D01*
X86952570Y-115408623D01*
X86952569Y-115408623D01*
X86724903Y-115502925D01*
X86483214Y-115551000D01*
X86236786Y-115551000D01*
X85995097Y-115502925D01*
X85767431Y-115408623D01*
X85767430Y-115408623D01*
X85767429Y-115408622D01*
X85562534Y-115271715D01*
X85388285Y-115097466D01*
X85251378Y-114892571D01*
X85157075Y-114664903D01*
X85109000Y-114423214D01*
X85109000Y-114176786D01*
X85157075Y-113935097D01*
X85251377Y-113707431D01*
X85276772Y-113669425D01*
X85388285Y-113502534D01*
X85562534Y-113328285D01*
X85767429Y-113191378D01*
X85995097Y-113097075D01*
X86098273Y-113076552D01*
X86236786Y-113049000D01*
X86483214Y-113049000D01*
X86621727Y-113076552D01*
X86621727Y-113076552D01*
G37*
G36*
X91371000Y-111291000D02*
G01*
X88969000Y-111291000D01*
X88969000Y-109689000D01*
X91371000Y-109689000D01*
X91371000Y-111291000D01*
X91371000Y-111291000D01*
G37*
G36*
X149334098Y-105497033D02*
G01*
X149798350Y-105689332D01*
X149798352Y-105689333D01*
X150216168Y-105968509D01*
X150571491Y-106323832D01*
X150850667Y-106741648D01*
X150850668Y-106741650D01*
X151042967Y-107205902D01*
X151141000Y-107698747D01*
X151141000Y-108201253D01*
X151042967Y-108694098D01*
X150861182Y-109132966D01*
X150850667Y-109158352D01*
X150571491Y-109576168D01*
X150216168Y-109931491D01*
X149798352Y-110210667D01*
X149798351Y-110210668D01*
X149798350Y-110210668D01*
X149334098Y-110402967D01*
X148841253Y-110501000D01*
X148338747Y-110501000D01*
X147845902Y-110402967D01*
X147381650Y-110210668D01*
X147381649Y-110210668D01*
X147381648Y-110210667D01*
X146963832Y-109931491D01*
X146608509Y-109576168D01*
X146329333Y-109158352D01*
X146318818Y-109132966D01*
X146137033Y-108694098D01*
X146039000Y-108201253D01*
X146039000Y-107698747D01*
X146137033Y-107205902D01*
X146329332Y-106741650D01*
X146329333Y-106741648D01*
X146608509Y-106323832D01*
X146963832Y-105968509D01*
X147381648Y-105689333D01*
X147381650Y-105689332D01*
X147845902Y-105497033D01*
X148338747Y-105399000D01*
X148841253Y-105399000D01*
X149334098Y-105497033D01*
X149334098Y-105497033D01*
G37*
G36*
X111234098Y-105497033D02*
G01*
X111698350Y-105689332D01*
X111698352Y-105689333D01*
X112116168Y-105968509D01*
X112471491Y-106323832D01*
X112750667Y-106741648D01*
X112750668Y-106741650D01*
X112942967Y-107205902D01*
X113041000Y-107698747D01*
X113041000Y-108201253D01*
X112942967Y-108694098D01*
X112761182Y-109132966D01*
X112750667Y-109158352D01*
X112471491Y-109576168D01*
X112116168Y-109931491D01*
X111698352Y-110210667D01*
X111698351Y-110210668D01*
X111698350Y-110210668D01*
X111234098Y-110402967D01*
X110741253Y-110501000D01*
X110238747Y-110501000D01*
X109745902Y-110402967D01*
X109281650Y-110210668D01*
X109281649Y-110210668D01*
X109281648Y-110210667D01*
X108863832Y-109931491D01*
X108508509Y-109576168D01*
X108229333Y-109158352D01*
X108218818Y-109132966D01*
X108037033Y-108694098D01*
X107939000Y-108201253D01*
X107939000Y-107698747D01*
X108037033Y-107205902D01*
X108229332Y-106741650D01*
X108229333Y-106741648D01*
X108508509Y-106323832D01*
X108863832Y-105968509D01*
X109281648Y-105689333D01*
X109281650Y-105689332D01*
X109745902Y-105497033D01*
X110238747Y-105399000D01*
X110741253Y-105399000D01*
X111234098Y-105497033D01*
X111234098Y-105497033D01*
G37*
G36*
X123934098Y-105497033D02*
G01*
X124398350Y-105689332D01*
X124398352Y-105689333D01*
X124816168Y-105968509D01*
X125171491Y-106323832D01*
X125450667Y-106741648D01*
X125450668Y-106741650D01*
X125642967Y-107205902D01*
X125741000Y-107698747D01*
X125741000Y-108201253D01*
X125642967Y-108694098D01*
X125461182Y-109132966D01*
X125450667Y-109158352D01*
X125171491Y-109576168D01*
X124816168Y-109931491D01*
X124398352Y-110210667D01*
X124398351Y-110210668D01*
X124398350Y-110210668D01*
X123934098Y-110402967D01*
X123441253Y-110501000D01*
X122938747Y-110501000D01*
X122445902Y-110402967D01*
X121981650Y-110210668D01*
X121981649Y-110210668D01*
X121981648Y-110210667D01*
X121563832Y-109931491D01*
X121208509Y-109576168D01*
X120929333Y-109158352D01*
X120918818Y-109132966D01*
X120737033Y-108694098D01*
X120639000Y-108201253D01*
X120639000Y-107698747D01*
X120737033Y-107205902D01*
X120929332Y-106741650D01*
X120929333Y-106741648D01*
X121208509Y-106323832D01*
X121563832Y-105968509D01*
X121981648Y-105689333D01*
X121981650Y-105689332D01*
X122445902Y-105497033D01*
X122938747Y-105399000D01*
X123441253Y-105399000D01*
X123934098Y-105497033D01*
X123934098Y-105497033D01*
G37*
G36*
X136634098Y-105497033D02*
G01*
X137098350Y-105689332D01*
X137098352Y-105689333D01*
X137516168Y-105968509D01*
X137871491Y-106323832D01*
X138150667Y-106741648D01*
X138150668Y-106741650D01*
X138342967Y-107205902D01*
X138441000Y-107698747D01*
X138441000Y-108201253D01*
X138342967Y-108694098D01*
X138161182Y-109132966D01*
X138150667Y-109158352D01*
X137871491Y-109576168D01*
X137516168Y-109931491D01*
X137098352Y-110210667D01*
X137098351Y-110210668D01*
X137098350Y-110210668D01*
X136634098Y-110402967D01*
X136141253Y-110501000D01*
X135638747Y-110501000D01*
X135145902Y-110402967D01*
X134681650Y-110210668D01*
X134681649Y-110210668D01*
X134681648Y-110210667D01*
X134263832Y-109931491D01*
X133908509Y-109576168D01*
X133629333Y-109158352D01*
X133618818Y-109132966D01*
X133437033Y-108694098D01*
X133339000Y-108201253D01*
X133339000Y-107698747D01*
X133437033Y-107205902D01*
X133629332Y-106741650D01*
X133629333Y-106741648D01*
X133908509Y-106323832D01*
X134263832Y-105968509D01*
X134681648Y-105689333D01*
X134681650Y-105689332D01*
X135145902Y-105497033D01*
X135638747Y-105399000D01*
X136141253Y-105399000D01*
X136634098Y-105497033D01*
X136634098Y-105497033D01*
G37*
G36*
X162034098Y-105497033D02*
G01*
X162498350Y-105689332D01*
X162498352Y-105689333D01*
X162916168Y-105968509D01*
X163271491Y-106323832D01*
X163550667Y-106741648D01*
X163550668Y-106741650D01*
X163742967Y-107205902D01*
X163841000Y-107698747D01*
X163841000Y-108201253D01*
X163742967Y-108694098D01*
X163561182Y-109132966D01*
X163550667Y-109158352D01*
X163271491Y-109576168D01*
X162916168Y-109931491D01*
X162498352Y-110210667D01*
X162498351Y-110210668D01*
X162498350Y-110210668D01*
X162034098Y-110402967D01*
X161541253Y-110501000D01*
X161038747Y-110501000D01*
X160545902Y-110402967D01*
X160081650Y-110210668D01*
X160081649Y-110210668D01*
X160081648Y-110210667D01*
X159663832Y-109931491D01*
X159308509Y-109576168D01*
X159029333Y-109158352D01*
X159018818Y-109132966D01*
X158837033Y-108694098D01*
X158739000Y-108201253D01*
X158739000Y-107698747D01*
X158837033Y-107205902D01*
X159029332Y-106741650D01*
X159029333Y-106741648D01*
X159308509Y-106323832D01*
X159663832Y-105968509D01*
X160081648Y-105689333D01*
X160081650Y-105689332D01*
X160545902Y-105497033D01*
X161038747Y-105399000D01*
X161541253Y-105399000D01*
X162034098Y-105497033D01*
X162034098Y-105497033D01*
G37*
G36*
X59455787Y-103265462D02*
G01*
X59455790Y-103265463D01*
X59455789Y-103265463D01*
X60102029Y-103533144D01*
X60683631Y-103921758D01*
X61178242Y-104416369D01*
X61566856Y-104997971D01*
X61681541Y-105274845D01*
X61834538Y-105644213D01*
X61971000Y-106330256D01*
X61971000Y-107029744D01*
X61834538Y-107715787D01*
X61826012Y-107736371D01*
X61566856Y-108362029D01*
X61178242Y-108943631D01*
X60683631Y-109438242D01*
X60102029Y-109826856D01*
X59645068Y-110016135D01*
X59455787Y-110094538D01*
X58769744Y-110231000D01*
X58070256Y-110231000D01*
X57384213Y-110094538D01*
X57194932Y-110016135D01*
X56737971Y-109826856D01*
X56156369Y-109438242D01*
X55661758Y-108943631D01*
X55273144Y-108362029D01*
X55013988Y-107736371D01*
X55005462Y-107715787D01*
X54869000Y-107029744D01*
X54869000Y-106330256D01*
X55005462Y-105644213D01*
X55158459Y-105274845D01*
X55273144Y-104997971D01*
X55661758Y-104416369D01*
X56156369Y-103921758D01*
X56737971Y-103533144D01*
X57384211Y-103265463D01*
X57384210Y-103265463D01*
X57384213Y-103265462D01*
X58070256Y-103129000D01*
X58769744Y-103129000D01*
X59455787Y-103265462D01*
X59455787Y-103265462D01*
G37*
G36*
X73134098Y-104227033D02*
G01*
X73591199Y-104416370D01*
X73598352Y-104419333D01*
X74016168Y-104698509D01*
X74371491Y-105053832D01*
X74542493Y-105309755D01*
X74650668Y-105471650D01*
X74842967Y-105935902D01*
X74941000Y-106428747D01*
X74941000Y-106931253D01*
X74842967Y-107424098D01*
X74691976Y-107788623D01*
X74650667Y-107888352D01*
X74371491Y-108306168D01*
X74016168Y-108661491D01*
X73598352Y-108940667D01*
X73598351Y-108940668D01*
X73598350Y-108940668D01*
X73134098Y-109132967D01*
X72641253Y-109231000D01*
X72138747Y-109231000D01*
X71645902Y-109132967D01*
X71181650Y-108940668D01*
X71181649Y-108940668D01*
X71181648Y-108940667D01*
X70763832Y-108661491D01*
X70408509Y-108306168D01*
X70129333Y-107888352D01*
X70088024Y-107788623D01*
X69937033Y-107424098D01*
X69839000Y-106931253D01*
X69839000Y-106428747D01*
X69937033Y-105935902D01*
X70129332Y-105471650D01*
X70237507Y-105309755D01*
X70408509Y-105053832D01*
X70763832Y-104698509D01*
X71181648Y-104419333D01*
X71188801Y-104416370D01*
X71645902Y-104227033D01*
X72138747Y-104129000D01*
X72641253Y-104129000D01*
X73134098Y-104227033D01*
X73134098Y-104227033D01*
G37*
G36*
X100575239Y-105447101D02*
G01*
X100811053Y-105518634D01*
X101028381Y-105634799D01*
X101218871Y-105791129D01*
X101375201Y-105981619D01*
X101491366Y-106198947D01*
X101562899Y-106434761D01*
X101587053Y-106680000D01*
X101562899Y-106925239D01*
X101491366Y-107161053D01*
X101375201Y-107378381D01*
X101218871Y-107568871D01*
X101028381Y-107725201D01*
X100811053Y-107841366D01*
X100575239Y-107912899D01*
X100391457Y-107931000D01*
X100268543Y-107931000D01*
X100084761Y-107912899D01*
X99848947Y-107841366D01*
X99631619Y-107725201D01*
X99441129Y-107568871D01*
X99284799Y-107378381D01*
X99168634Y-107161053D01*
X99097101Y-106925239D01*
X99072947Y-106680000D01*
X99097101Y-106434761D01*
X99168634Y-106198947D01*
X99284799Y-105981619D01*
X99441129Y-105791129D01*
X99631619Y-105634799D01*
X99848947Y-105518634D01*
X100084761Y-105447101D01*
X100268543Y-105429000D01*
X100391457Y-105429000D01*
X100575239Y-105447101D01*
X100575239Y-105447101D01*
G37*
G36*
X80374903Y-105477075D02*
G01*
X80510433Y-105533213D01*
X80602571Y-105571378D01*
X80807466Y-105708285D01*
X80981715Y-105882534D01*
X81118622Y-106087429D01*
X81118623Y-106087431D01*
X81212925Y-106315097D01*
X81261000Y-106556786D01*
X81261000Y-106803214D01*
X81215941Y-107029743D01*
X81212925Y-107044903D01*
X81118622Y-107272571D01*
X80981715Y-107477466D01*
X80807466Y-107651715D01*
X80602571Y-107788622D01*
X80602570Y-107788623D01*
X80602569Y-107788623D01*
X80374903Y-107882925D01*
X80133214Y-107931000D01*
X79886786Y-107931000D01*
X79645097Y-107882925D01*
X79417431Y-107788623D01*
X79417430Y-107788623D01*
X79417429Y-107788622D01*
X79212534Y-107651715D01*
X79038285Y-107477466D01*
X78901378Y-107272571D01*
X78807075Y-107044903D01*
X78804059Y-107029743D01*
X78759000Y-106803214D01*
X78759000Y-106556786D01*
X78807075Y-106315097D01*
X78901377Y-106087431D01*
X78901378Y-106087429D01*
X79038285Y-105882534D01*
X79212534Y-105708285D01*
X79417429Y-105571378D01*
X79509568Y-105533213D01*
X79645097Y-105477075D01*
X79886786Y-105429000D01*
X80133214Y-105429000D01*
X80374903Y-105477075D01*
X80374903Y-105477075D01*
G37*
G36*
X86621727Y-104186552D02*
G01*
X86724903Y-104207075D01*
X86952571Y-104301378D01*
X87157466Y-104438285D01*
X87331715Y-104612534D01*
X87443228Y-104779425D01*
X87468623Y-104817431D01*
X87562925Y-105045097D01*
X87611000Y-105286786D01*
X87611000Y-105533214D01*
X87562925Y-105774903D01*
X87468622Y-106002571D01*
X87331715Y-106207466D01*
X87157466Y-106381715D01*
X86952571Y-106518622D01*
X86952570Y-106518623D01*
X86952569Y-106518623D01*
X86724903Y-106612925D01*
X86483214Y-106661000D01*
X86236786Y-106661000D01*
X85995097Y-106612925D01*
X85767431Y-106518623D01*
X85767430Y-106518623D01*
X85767429Y-106518622D01*
X85562534Y-106381715D01*
X85388285Y-106207466D01*
X85251378Y-106002571D01*
X85157075Y-105774903D01*
X85109000Y-105533214D01*
X85109000Y-105286786D01*
X85157075Y-105045097D01*
X85251377Y-104817431D01*
X85276772Y-104779425D01*
X85388285Y-104612534D01*
X85562534Y-104438285D01*
X85767429Y-104301378D01*
X85995097Y-104207075D01*
X86098273Y-104186552D01*
X86236786Y-104159000D01*
X86483214Y-104159000D01*
X86621727Y-104186552D01*
X86621727Y-104186552D01*
G37*
G36*
X91371000Y-102401000D02*
G01*
X88969000Y-102401000D01*
X88969000Y-100799000D01*
X91371000Y-100799000D01*
X91371000Y-102401000D01*
X91371000Y-102401000D01*
G37*
G36*
X59455787Y-94375462D02*
G01*
X59645068Y-94453865D01*
X60102029Y-94643144D01*
X60683631Y-95031758D01*
X61178242Y-95526369D01*
X61566856Y-96107971D01*
X61681541Y-96384845D01*
X61834538Y-96754213D01*
X61971000Y-97440256D01*
X61971000Y-98139744D01*
X61834538Y-98825787D01*
X61805378Y-98896185D01*
X61566856Y-99472029D01*
X61178242Y-100053631D01*
X60683631Y-100548242D01*
X60102029Y-100936856D01*
X59645068Y-101126135D01*
X59455787Y-101204538D01*
X58769744Y-101341000D01*
X58070256Y-101341000D01*
X57384213Y-101204538D01*
X57194932Y-101126135D01*
X56737971Y-100936856D01*
X56156369Y-100548242D01*
X55661758Y-100053631D01*
X55273144Y-99472029D01*
X55034622Y-98896185D01*
X55005462Y-98825787D01*
X54869000Y-98139744D01*
X54869000Y-97440256D01*
X55005462Y-96754213D01*
X55158459Y-96384845D01*
X55273144Y-96107971D01*
X55661758Y-95526369D01*
X56156369Y-95031758D01*
X56737971Y-94643144D01*
X57194932Y-94453865D01*
X57384213Y-94375462D01*
X58070256Y-94239000D01*
X58769744Y-94239000D01*
X59455787Y-94375462D01*
X59455787Y-94375462D01*
G37*
G36*
X73134098Y-95337033D02*
G01*
X73591199Y-95526370D01*
X73598352Y-95529333D01*
X74016168Y-95808509D01*
X74371491Y-96163832D01*
X74542493Y-96419755D01*
X74650668Y-96581650D01*
X74842967Y-97045902D01*
X74941000Y-97538747D01*
X74941000Y-98041253D01*
X74842967Y-98534098D01*
X74691976Y-98898623D01*
X74650667Y-98998352D01*
X74371491Y-99416168D01*
X74016168Y-99771491D01*
X73598352Y-100050667D01*
X73598351Y-100050668D01*
X73598350Y-100050668D01*
X73134098Y-100242967D01*
X72641253Y-100341000D01*
X72138747Y-100341000D01*
X71645902Y-100242967D01*
X71181650Y-100050668D01*
X71181649Y-100050668D01*
X71181648Y-100050667D01*
X70763832Y-99771491D01*
X70408509Y-99416168D01*
X70129333Y-98998352D01*
X70088024Y-98898623D01*
X69937033Y-98534098D01*
X69839000Y-98041253D01*
X69839000Y-97538747D01*
X69937033Y-97045902D01*
X70129332Y-96581650D01*
X70237507Y-96419755D01*
X70408509Y-96163832D01*
X70763832Y-95808509D01*
X71181648Y-95529333D01*
X71188801Y-95526370D01*
X71645902Y-95337033D01*
X72138747Y-95239000D01*
X72641253Y-95239000D01*
X73134098Y-95337033D01*
X73134098Y-95337033D01*
G37*
G36*
X123438228Y-98161703D02*
G01*
X123593100Y-98225853D01*
X123732481Y-98318985D01*
X123851015Y-98437519D01*
X123944147Y-98576900D01*
X124008297Y-98731772D01*
X124041000Y-98896184D01*
X124041000Y-99063816D01*
X124008297Y-99228228D01*
X123944147Y-99383100D01*
X123851015Y-99522481D01*
X123732481Y-99641015D01*
X123593100Y-99734147D01*
X123438228Y-99798297D01*
X123273816Y-99831000D01*
X123106184Y-99831000D01*
X122941772Y-99798297D01*
X122786900Y-99734147D01*
X122647519Y-99641015D01*
X122528985Y-99522481D01*
X122435853Y-99383100D01*
X122371703Y-99228228D01*
X122339000Y-99063816D01*
X122339000Y-98896184D01*
X122371703Y-98731772D01*
X122435853Y-98576900D01*
X122528985Y-98437519D01*
X122647519Y-98318985D01*
X122786900Y-98225853D01*
X122941772Y-98161703D01*
X123106184Y-98129000D01*
X123273816Y-98129000D01*
X123438228Y-98161703D01*
X123438228Y-98161703D01*
G37*
G36*
X148838228Y-98161703D02*
G01*
X148993100Y-98225853D01*
X149132481Y-98318985D01*
X149251015Y-98437519D01*
X149344147Y-98576900D01*
X149408297Y-98731772D01*
X149441000Y-98896184D01*
X149441000Y-99063816D01*
X149408297Y-99228228D01*
X149344147Y-99383100D01*
X149251015Y-99522481D01*
X149132481Y-99641015D01*
X148993100Y-99734147D01*
X148838228Y-99798297D01*
X148673816Y-99831000D01*
X148506184Y-99831000D01*
X148341772Y-99798297D01*
X148186900Y-99734147D01*
X148047519Y-99641015D01*
X147928985Y-99522481D01*
X147835853Y-99383100D01*
X147771703Y-99228228D01*
X147739000Y-99063816D01*
X147739000Y-98896184D01*
X147771703Y-98731772D01*
X147835853Y-98576900D01*
X147928985Y-98437519D01*
X148047519Y-98318985D01*
X148186900Y-98225853D01*
X148341772Y-98161703D01*
X148506184Y-98129000D01*
X148673816Y-98129000D01*
X148838228Y-98161703D01*
X148838228Y-98161703D01*
G37*
G36*
X110738228Y-98161703D02*
G01*
X110893100Y-98225853D01*
X111032481Y-98318985D01*
X111151015Y-98437519D01*
X111244147Y-98576900D01*
X111308297Y-98731772D01*
X111341000Y-98896184D01*
X111341000Y-99063816D01*
X111308297Y-99228228D01*
X111244147Y-99383100D01*
X111151015Y-99522481D01*
X111032481Y-99641015D01*
X110893100Y-99734147D01*
X110738228Y-99798297D01*
X110573816Y-99831000D01*
X110406184Y-99831000D01*
X110241772Y-99798297D01*
X110086900Y-99734147D01*
X109947519Y-99641015D01*
X109828985Y-99522481D01*
X109735853Y-99383100D01*
X109671703Y-99228228D01*
X109639000Y-99063816D01*
X109639000Y-98896184D01*
X109671703Y-98731772D01*
X109735853Y-98576900D01*
X109828985Y-98437519D01*
X109947519Y-98318985D01*
X110086900Y-98225853D01*
X110241772Y-98161703D01*
X110406184Y-98129000D01*
X110573816Y-98129000D01*
X110738228Y-98161703D01*
X110738228Y-98161703D01*
G37*
G36*
X136138228Y-98161703D02*
G01*
X136293100Y-98225853D01*
X136432481Y-98318985D01*
X136551015Y-98437519D01*
X136644147Y-98576900D01*
X136708297Y-98731772D01*
X136741000Y-98896184D01*
X136741000Y-99063816D01*
X136708297Y-99228228D01*
X136644147Y-99383100D01*
X136551015Y-99522481D01*
X136432481Y-99641015D01*
X136293100Y-99734147D01*
X136138228Y-99798297D01*
X135973816Y-99831000D01*
X135806184Y-99831000D01*
X135641772Y-99798297D01*
X135486900Y-99734147D01*
X135347519Y-99641015D01*
X135228985Y-99522481D01*
X135135853Y-99383100D01*
X135071703Y-99228228D01*
X135039000Y-99063816D01*
X135039000Y-98896184D01*
X135071703Y-98731772D01*
X135135853Y-98576900D01*
X135228985Y-98437519D01*
X135347519Y-98318985D01*
X135486900Y-98225853D01*
X135641772Y-98161703D01*
X135806184Y-98129000D01*
X135973816Y-98129000D01*
X136138228Y-98161703D01*
X136138228Y-98161703D01*
G37*
G36*
X161538228Y-98161703D02*
G01*
X161693100Y-98225853D01*
X161832481Y-98318985D01*
X161951015Y-98437519D01*
X162044147Y-98576900D01*
X162108297Y-98731772D01*
X162141000Y-98896184D01*
X162141000Y-99063816D01*
X162108297Y-99228228D01*
X162044147Y-99383100D01*
X161951015Y-99522481D01*
X161832481Y-99641015D01*
X161693100Y-99734147D01*
X161538228Y-99798297D01*
X161373816Y-99831000D01*
X161206184Y-99831000D01*
X161041772Y-99798297D01*
X160886900Y-99734147D01*
X160747519Y-99641015D01*
X160628985Y-99522481D01*
X160535853Y-99383100D01*
X160471703Y-99228228D01*
X160439000Y-99063816D01*
X160439000Y-98896184D01*
X160471703Y-98731772D01*
X160535853Y-98576900D01*
X160628985Y-98437519D01*
X160747519Y-98318985D01*
X160886900Y-98225853D01*
X161041772Y-98161703D01*
X161206184Y-98129000D01*
X161373816Y-98129000D01*
X161538228Y-98161703D01*
X161538228Y-98161703D01*
G37*
G36*
X100575239Y-96557101D02*
G01*
X100811053Y-96628634D01*
X101028381Y-96744799D01*
X101218871Y-96901129D01*
X101375201Y-97091619D01*
X101491366Y-97308947D01*
X101562899Y-97544761D01*
X101587053Y-97790000D01*
X101562899Y-98035239D01*
X101491366Y-98271053D01*
X101375201Y-98488381D01*
X101218871Y-98678871D01*
X101028381Y-98835201D01*
X100811053Y-98951366D01*
X100575239Y-99022899D01*
X100391457Y-99041000D01*
X100268543Y-99041000D01*
X100084761Y-99022899D01*
X99848947Y-98951366D01*
X99631619Y-98835201D01*
X99441129Y-98678871D01*
X99284799Y-98488381D01*
X99168634Y-98271053D01*
X99097101Y-98035239D01*
X99072947Y-97790000D01*
X99097101Y-97544761D01*
X99168634Y-97308947D01*
X99284799Y-97091619D01*
X99441129Y-96901129D01*
X99631619Y-96744799D01*
X99848947Y-96628634D01*
X100084761Y-96557101D01*
X100268543Y-96539000D01*
X100391457Y-96539000D01*
X100575239Y-96557101D01*
X100575239Y-96557101D01*
G37*
G36*
X80374903Y-96587075D02*
G01*
X80510433Y-96643213D01*
X80602571Y-96681378D01*
X80807466Y-96818285D01*
X80981715Y-96992534D01*
X81118622Y-97197429D01*
X81212925Y-97425097D01*
X81261000Y-97666787D01*
X81261000Y-97913213D01*
X81212925Y-98154903D01*
X81118622Y-98382571D01*
X80981715Y-98587466D01*
X80807466Y-98761715D01*
X80602571Y-98898622D01*
X80602570Y-98898623D01*
X80602569Y-98898623D01*
X80374903Y-98992925D01*
X80133214Y-99041000D01*
X79886786Y-99041000D01*
X79645097Y-98992925D01*
X79417431Y-98898623D01*
X79417430Y-98898623D01*
X79417429Y-98898622D01*
X79212534Y-98761715D01*
X79038285Y-98587466D01*
X78901378Y-98382571D01*
X78807075Y-98154903D01*
X78759000Y-97913213D01*
X78759000Y-97666787D01*
X78807075Y-97425097D01*
X78901378Y-97197429D01*
X79038285Y-96992534D01*
X79212534Y-96818285D01*
X79417429Y-96681378D01*
X79509568Y-96643213D01*
X79645097Y-96587075D01*
X79886786Y-96539000D01*
X80133214Y-96539000D01*
X80374903Y-96587075D01*
X80374903Y-96587075D01*
G37*
G36*
X86621727Y-95296552D02*
G01*
X86724903Y-95317075D01*
X86952571Y-95411378D01*
X87157466Y-95548285D01*
X87331715Y-95722534D01*
X87443228Y-95889425D01*
X87468623Y-95927431D01*
X87562925Y-96155097D01*
X87611000Y-96396786D01*
X87611000Y-96643214D01*
X87562925Y-96884903D01*
X87468622Y-97112571D01*
X87331715Y-97317466D01*
X87157466Y-97491715D01*
X86952571Y-97628622D01*
X86952570Y-97628623D01*
X86952569Y-97628623D01*
X86724903Y-97722925D01*
X86483214Y-97771000D01*
X86236786Y-97771000D01*
X85995097Y-97722925D01*
X85767431Y-97628623D01*
X85767430Y-97628623D01*
X85767429Y-97628622D01*
X85562534Y-97491715D01*
X85388285Y-97317466D01*
X85251378Y-97112571D01*
X85157075Y-96884903D01*
X85109000Y-96643214D01*
X85109000Y-96396786D01*
X85157075Y-96155097D01*
X85251377Y-95927431D01*
X85276772Y-95889425D01*
X85388285Y-95722534D01*
X85562534Y-95548285D01*
X85767429Y-95411378D01*
X85995097Y-95317075D01*
X86098273Y-95296552D01*
X86236786Y-95269000D01*
X86483214Y-95269000D01*
X86621727Y-95296552D01*
X86621727Y-95296552D01*
G37*
G36*
X153201000Y-97721000D02*
G01*
X151599000Y-97721000D01*
X151599000Y-95319000D01*
X153201000Y-95319000D01*
X153201000Y-97721000D01*
X153201000Y-97721000D01*
G37*
G36*
X159551000Y-97721000D02*
G01*
X157949000Y-97721000D01*
X157949000Y-95319000D01*
X159551000Y-95319000D01*
X159551000Y-97721000D01*
X159551000Y-97721000D01*
G37*
G36*
X127801000Y-97721000D02*
G01*
X126199000Y-97721000D01*
X126199000Y-95319000D01*
X127801000Y-95319000D01*
X127801000Y-97721000D01*
X127801000Y-97721000D01*
G37*
G36*
X115101000Y-97721000D02*
G01*
X113499000Y-97721000D01*
X113499000Y-95319000D01*
X115101000Y-95319000D01*
X115101000Y-97721000D01*
X115101000Y-97721000D01*
G37*
G36*
X140501000Y-97721000D02*
G01*
X138899000Y-97721000D01*
X138899000Y-95319000D01*
X140501000Y-95319000D01*
X140501000Y-97721000D01*
X140501000Y-97721000D01*
G37*
G36*
X123438228Y-93161703D02*
G01*
X123593100Y-93225853D01*
X123732481Y-93318985D01*
X123851015Y-93437519D01*
X123944147Y-93576900D01*
X124008297Y-93731772D01*
X124041000Y-93896184D01*
X124041000Y-94063816D01*
X124008297Y-94228228D01*
X123944147Y-94383100D01*
X123851015Y-94522481D01*
X123732481Y-94641015D01*
X123593100Y-94734147D01*
X123438228Y-94798297D01*
X123273816Y-94831000D01*
X123106184Y-94831000D01*
X122941772Y-94798297D01*
X122786900Y-94734147D01*
X122647519Y-94641015D01*
X122528985Y-94522481D01*
X122435853Y-94383100D01*
X122371703Y-94228228D01*
X122339000Y-94063816D01*
X122339000Y-93896184D01*
X122371703Y-93731772D01*
X122435853Y-93576900D01*
X122528985Y-93437519D01*
X122647519Y-93318985D01*
X122786900Y-93225853D01*
X122941772Y-93161703D01*
X123106184Y-93129000D01*
X123273816Y-93129000D01*
X123438228Y-93161703D01*
X123438228Y-93161703D01*
G37*
G36*
X148838228Y-93161703D02*
G01*
X148993100Y-93225853D01*
X149132481Y-93318985D01*
X149251015Y-93437519D01*
X149344147Y-93576900D01*
X149408297Y-93731772D01*
X149441000Y-93896184D01*
X149441000Y-94063816D01*
X149408297Y-94228228D01*
X149344147Y-94383100D01*
X149251015Y-94522481D01*
X149132481Y-94641015D01*
X148993100Y-94734147D01*
X148838228Y-94798297D01*
X148673816Y-94831000D01*
X148506184Y-94831000D01*
X148341772Y-94798297D01*
X148186900Y-94734147D01*
X148047519Y-94641015D01*
X147928985Y-94522481D01*
X147835853Y-94383100D01*
X147771703Y-94228228D01*
X147739000Y-94063816D01*
X147739000Y-93896184D01*
X147771703Y-93731772D01*
X147835853Y-93576900D01*
X147928985Y-93437519D01*
X148047519Y-93318985D01*
X148186900Y-93225853D01*
X148341772Y-93161703D01*
X148506184Y-93129000D01*
X148673816Y-93129000D01*
X148838228Y-93161703D01*
X148838228Y-93161703D01*
G37*
G36*
X136138228Y-93161703D02*
G01*
X136293100Y-93225853D01*
X136432481Y-93318985D01*
X136551015Y-93437519D01*
X136644147Y-93576900D01*
X136708297Y-93731772D01*
X136741000Y-93896184D01*
X136741000Y-94063816D01*
X136708297Y-94228228D01*
X136644147Y-94383100D01*
X136551015Y-94522481D01*
X136432481Y-94641015D01*
X136293100Y-94734147D01*
X136138228Y-94798297D01*
X135973816Y-94831000D01*
X135806184Y-94831000D01*
X135641772Y-94798297D01*
X135486900Y-94734147D01*
X135347519Y-94641015D01*
X135228985Y-94522481D01*
X135135853Y-94383100D01*
X135071703Y-94228228D01*
X135039000Y-94063816D01*
X135039000Y-93896184D01*
X135071703Y-93731772D01*
X135135853Y-93576900D01*
X135228985Y-93437519D01*
X135347519Y-93318985D01*
X135486900Y-93225853D01*
X135641772Y-93161703D01*
X135806184Y-93129000D01*
X135973816Y-93129000D01*
X136138228Y-93161703D01*
X136138228Y-93161703D01*
G37*
G36*
X110738228Y-93161703D02*
G01*
X110893100Y-93225853D01*
X111032481Y-93318985D01*
X111151015Y-93437519D01*
X111244147Y-93576900D01*
X111308297Y-93731772D01*
X111341000Y-93896184D01*
X111341000Y-94063816D01*
X111308297Y-94228228D01*
X111244147Y-94383100D01*
X111151015Y-94522481D01*
X111032481Y-94641015D01*
X110893100Y-94734147D01*
X110738228Y-94798297D01*
X110573816Y-94831000D01*
X110406184Y-94831000D01*
X110241772Y-94798297D01*
X110086900Y-94734147D01*
X109947519Y-94641015D01*
X109828985Y-94522481D01*
X109735853Y-94383100D01*
X109671703Y-94228228D01*
X109639000Y-94063816D01*
X109639000Y-93896184D01*
X109671703Y-93731772D01*
X109735853Y-93576900D01*
X109828985Y-93437519D01*
X109947519Y-93318985D01*
X110086900Y-93225853D01*
X110241772Y-93161703D01*
X110406184Y-93129000D01*
X110573816Y-93129000D01*
X110738228Y-93161703D01*
X110738228Y-93161703D01*
G37*
G36*
X161538228Y-93161703D02*
G01*
X161693100Y-93225853D01*
X161832481Y-93318985D01*
X161951015Y-93437519D01*
X162044147Y-93576900D01*
X162108297Y-93731772D01*
X162141000Y-93896184D01*
X162141000Y-94063816D01*
X162108297Y-94228228D01*
X162044147Y-94383100D01*
X161951015Y-94522481D01*
X161832481Y-94641015D01*
X161693100Y-94734147D01*
X161538228Y-94798297D01*
X161373816Y-94831000D01*
X161206184Y-94831000D01*
X161041772Y-94798297D01*
X160886900Y-94734147D01*
X160747519Y-94641015D01*
X160628985Y-94522481D01*
X160535853Y-94383100D01*
X160471703Y-94228228D01*
X160439000Y-94063816D01*
X160439000Y-93896184D01*
X160471703Y-93731772D01*
X160535853Y-93576900D01*
X160628985Y-93437519D01*
X160747519Y-93318985D01*
X160886900Y-93225853D01*
X161041772Y-93161703D01*
X161206184Y-93129000D01*
X161373816Y-93129000D01*
X161538228Y-93161703D01*
X161538228Y-93161703D01*
G37*
G36*
X91371000Y-93511000D02*
G01*
X88969000Y-93511000D01*
X88969000Y-91909000D01*
X91371000Y-91909000D01*
X91371000Y-93511000D01*
X91371000Y-93511000D01*
G37*
G36*
X59455787Y-85485462D02*
G01*
X59455790Y-85485463D01*
X59455789Y-85485463D01*
X60102029Y-85753144D01*
X60683631Y-86141758D01*
X61178242Y-86636369D01*
X61566856Y-87217971D01*
X61681541Y-87494845D01*
X61834538Y-87864213D01*
X61971000Y-88550256D01*
X61971000Y-89249744D01*
X61834538Y-89935787D01*
X61804369Y-90008622D01*
X61566856Y-90582029D01*
X61178242Y-91163631D01*
X60683631Y-91658242D01*
X60102029Y-92046856D01*
X59645068Y-92236135D01*
X59455787Y-92314538D01*
X58769744Y-92451000D01*
X58070256Y-92451000D01*
X57384213Y-92314538D01*
X57194932Y-92236135D01*
X56737971Y-92046856D01*
X56156369Y-91658242D01*
X55661758Y-91163631D01*
X55273144Y-90582029D01*
X55035631Y-90008622D01*
X55005462Y-89935787D01*
X54869000Y-89249744D01*
X54869000Y-88550256D01*
X55005462Y-87864213D01*
X55158459Y-87494845D01*
X55273144Y-87217971D01*
X55661758Y-86636369D01*
X56156369Y-86141758D01*
X56737971Y-85753144D01*
X57384211Y-85485463D01*
X57384210Y-85485463D01*
X57384213Y-85485462D01*
X58070256Y-85349000D01*
X58769744Y-85349000D01*
X59455787Y-85485462D01*
X59455787Y-85485462D01*
G37*
G36*
X73134098Y-86447033D02*
G01*
X73591199Y-86636370D01*
X73598352Y-86639333D01*
X74016168Y-86918509D01*
X74371491Y-87273832D01*
X74542493Y-87529755D01*
X74650668Y-87691650D01*
X74842967Y-88155902D01*
X74941000Y-88648747D01*
X74941000Y-89151253D01*
X74842967Y-89644098D01*
X74691976Y-90008623D01*
X74650667Y-90108352D01*
X74371491Y-90526168D01*
X74016168Y-90881491D01*
X73598352Y-91160667D01*
X73598351Y-91160668D01*
X73598350Y-91160668D01*
X73134098Y-91352967D01*
X72641253Y-91451000D01*
X72138747Y-91451000D01*
X71645902Y-91352967D01*
X71181650Y-91160668D01*
X71181649Y-91160668D01*
X71181648Y-91160667D01*
X70763832Y-90881491D01*
X70408509Y-90526168D01*
X70129333Y-90108352D01*
X70088024Y-90008623D01*
X69937033Y-89644098D01*
X69839000Y-89151253D01*
X69839000Y-88648747D01*
X69937033Y-88155902D01*
X70129332Y-87691650D01*
X70237507Y-87529755D01*
X70408509Y-87273832D01*
X70763832Y-86918509D01*
X71181648Y-86639333D01*
X71188801Y-86636370D01*
X71645902Y-86447033D01*
X72138747Y-86349000D01*
X72641253Y-86349000D01*
X73134098Y-86447033D01*
X73134098Y-86447033D01*
G37*
G36*
X80374903Y-87697075D02*
G01*
X80510433Y-87753213D01*
X80602571Y-87791378D01*
X80807466Y-87928285D01*
X80981715Y-88102534D01*
X81118622Y-88307429D01*
X81212925Y-88535097D01*
X81261000Y-88776787D01*
X81261000Y-89023213D01*
X81212925Y-89264903D01*
X81118622Y-89492571D01*
X80981715Y-89697466D01*
X80807466Y-89871715D01*
X80602571Y-90008622D01*
X80602570Y-90008623D01*
X80602569Y-90008623D01*
X80374903Y-90102925D01*
X80133214Y-90151000D01*
X79886786Y-90151000D01*
X79645097Y-90102925D01*
X79417431Y-90008623D01*
X79417430Y-90008623D01*
X79417429Y-90008622D01*
X79212534Y-89871715D01*
X79038285Y-89697466D01*
X78901378Y-89492571D01*
X78807075Y-89264903D01*
X78759000Y-89023213D01*
X78759000Y-88776787D01*
X78807075Y-88535097D01*
X78901378Y-88307429D01*
X79038285Y-88102534D01*
X79212534Y-87928285D01*
X79417429Y-87791378D01*
X79509568Y-87753213D01*
X79645097Y-87697075D01*
X79886786Y-87649000D01*
X80133214Y-87649000D01*
X80374903Y-87697075D01*
X80374903Y-87697075D01*
G37*
G36*
X100575239Y-87667101D02*
G01*
X100811053Y-87738634D01*
X101028381Y-87854799D01*
X101218871Y-88011129D01*
X101375201Y-88201619D01*
X101491366Y-88418947D01*
X101562899Y-88654761D01*
X101587053Y-88900000D01*
X101562899Y-89145239D01*
X101491366Y-89381053D01*
X101375201Y-89598381D01*
X101218871Y-89788871D01*
X101028381Y-89945201D01*
X100811053Y-90061366D01*
X100575239Y-90132899D01*
X100391457Y-90151000D01*
X100268543Y-90151000D01*
X100084761Y-90132899D01*
X99848947Y-90061366D01*
X99631619Y-89945201D01*
X99441129Y-89788871D01*
X99284799Y-89598381D01*
X99168634Y-89381053D01*
X99097101Y-89145239D01*
X99072947Y-88900000D01*
X99097101Y-88654761D01*
X99168634Y-88418947D01*
X99284799Y-88201619D01*
X99441129Y-88011129D01*
X99631619Y-87854799D01*
X99848947Y-87738634D01*
X100084761Y-87667101D01*
X100268543Y-87649000D01*
X100391457Y-87649000D01*
X100575239Y-87667101D01*
X100575239Y-87667101D01*
G37*
G36*
X86621727Y-86406552D02*
G01*
X86724903Y-86427075D01*
X86952571Y-86521378D01*
X87157466Y-86658285D01*
X87331715Y-86832534D01*
X87443228Y-86999425D01*
X87468623Y-87037431D01*
X87562925Y-87265097D01*
X87611000Y-87506786D01*
X87611000Y-87753214D01*
X87562925Y-87994903D01*
X87468622Y-88222571D01*
X87331715Y-88427466D01*
X87157466Y-88601715D01*
X86952571Y-88738622D01*
X86952570Y-88738623D01*
X86952569Y-88738623D01*
X86724903Y-88832925D01*
X86483214Y-88881000D01*
X86236786Y-88881000D01*
X85995097Y-88832925D01*
X85767431Y-88738623D01*
X85767430Y-88738623D01*
X85767429Y-88738622D01*
X85562534Y-88601715D01*
X85388285Y-88427466D01*
X85251378Y-88222571D01*
X85157075Y-87994903D01*
X85109000Y-87753214D01*
X85109000Y-87506786D01*
X85157075Y-87265097D01*
X85251377Y-87037431D01*
X85276772Y-86999425D01*
X85388285Y-86832534D01*
X85562534Y-86658285D01*
X85767429Y-86521378D01*
X85995097Y-86427075D01*
X86098273Y-86406552D01*
X86236786Y-86379000D01*
X86483214Y-86379000D01*
X86621727Y-86406552D01*
X86621727Y-86406552D01*
G37*
G36*
X91371000Y-84621000D02*
G01*
X88969000Y-84621000D01*
X88969000Y-83019000D01*
X91371000Y-83019000D01*
X91371000Y-84621000D01*
X91371000Y-84621000D01*
G37*
G36*
X59455787Y-76595462D02*
G01*
X59455790Y-76595463D01*
X59455789Y-76595463D01*
X60102029Y-76863144D01*
X60683631Y-77251758D01*
X61178242Y-77746369D01*
X61566856Y-78327971D01*
X61681541Y-78604845D01*
X61834538Y-78974213D01*
X61971000Y-79660256D01*
X61971000Y-80359744D01*
X61834538Y-81045787D01*
X61804369Y-81118622D01*
X61566856Y-81692029D01*
X61178242Y-82273631D01*
X60683631Y-82768242D01*
X60102029Y-83156856D01*
X59645068Y-83346135D01*
X59455787Y-83424538D01*
X58769744Y-83561000D01*
X58070256Y-83561000D01*
X57384213Y-83424538D01*
X57194932Y-83346135D01*
X56737971Y-83156856D01*
X56156369Y-82768242D01*
X55661758Y-82273631D01*
X55273144Y-81692029D01*
X55035631Y-81118622D01*
X55005462Y-81045787D01*
X54869000Y-80359744D01*
X54869000Y-79660256D01*
X55005462Y-78974213D01*
X55158459Y-78604845D01*
X55273144Y-78327971D01*
X55661758Y-77746369D01*
X56156369Y-77251758D01*
X56737971Y-76863144D01*
X57384211Y-76595463D01*
X57384210Y-76595463D01*
X57384213Y-76595462D01*
X58070256Y-76459000D01*
X58769744Y-76459000D01*
X59455787Y-76595462D01*
X59455787Y-76595462D01*
G37*
G36*
X73134098Y-77557033D02*
G01*
X73591199Y-77746370D01*
X73598352Y-77749333D01*
X74016168Y-78028509D01*
X74371491Y-78383832D01*
X74542493Y-78639755D01*
X74650668Y-78801650D01*
X74842967Y-79265902D01*
X74941000Y-79758747D01*
X74941000Y-80261253D01*
X74842967Y-80754098D01*
X74691976Y-81118623D01*
X74650667Y-81218352D01*
X74371491Y-81636168D01*
X74016168Y-81991491D01*
X73598352Y-82270667D01*
X73598351Y-82270668D01*
X73598350Y-82270668D01*
X73134098Y-82462967D01*
X72641253Y-82561000D01*
X72138747Y-82561000D01*
X71645902Y-82462967D01*
X71181650Y-82270668D01*
X71181649Y-82270668D01*
X71181648Y-82270667D01*
X70763832Y-81991491D01*
X70408509Y-81636168D01*
X70129333Y-81218352D01*
X70088024Y-81118623D01*
X69937033Y-80754098D01*
X69839000Y-80261253D01*
X69839000Y-79758747D01*
X69937033Y-79265902D01*
X70129332Y-78801650D01*
X70237507Y-78639755D01*
X70408509Y-78383832D01*
X70763832Y-78028509D01*
X71181648Y-77749333D01*
X71188801Y-77746370D01*
X71645902Y-77557033D01*
X72138747Y-77459000D01*
X72641253Y-77459000D01*
X73134098Y-77557033D01*
X73134098Y-77557033D01*
G37*
G36*
X80374903Y-78807075D02*
G01*
X80510433Y-78863213D01*
X80602571Y-78901378D01*
X80807466Y-79038285D01*
X80981715Y-79212534D01*
X81118622Y-79417429D01*
X81212925Y-79645097D01*
X81261000Y-79886787D01*
X81261000Y-80133213D01*
X81212925Y-80374903D01*
X81118622Y-80602571D01*
X80981715Y-80807466D01*
X80807466Y-80981715D01*
X80602571Y-81118622D01*
X80602570Y-81118623D01*
X80602569Y-81118623D01*
X80374903Y-81212925D01*
X80133214Y-81261000D01*
X79886786Y-81261000D01*
X79645097Y-81212925D01*
X79417431Y-81118623D01*
X79417430Y-81118623D01*
X79417429Y-81118622D01*
X79212534Y-80981715D01*
X79038285Y-80807466D01*
X78901378Y-80602571D01*
X78807075Y-80374903D01*
X78759000Y-80133213D01*
X78759000Y-79886787D01*
X78807075Y-79645097D01*
X78901378Y-79417429D01*
X79038285Y-79212534D01*
X79212534Y-79038285D01*
X79417429Y-78901378D01*
X79509568Y-78863213D01*
X79645097Y-78807075D01*
X79886786Y-78759000D01*
X80133214Y-78759000D01*
X80374903Y-78807075D01*
X80374903Y-78807075D01*
G37*
G36*
X100575239Y-78777101D02*
G01*
X100811053Y-78848634D01*
X101028381Y-78964799D01*
X101218871Y-79121129D01*
X101375201Y-79311619D01*
X101491366Y-79528947D01*
X101562899Y-79764761D01*
X101587053Y-80010000D01*
X101562899Y-80255239D01*
X101491366Y-80491053D01*
X101375201Y-80708381D01*
X101218871Y-80898871D01*
X101028381Y-81055201D01*
X100811053Y-81171366D01*
X100575239Y-81242899D01*
X100391457Y-81261000D01*
X100268543Y-81261000D01*
X100084761Y-81242899D01*
X99848947Y-81171366D01*
X99631619Y-81055201D01*
X99441129Y-80898871D01*
X99284799Y-80708381D01*
X99168634Y-80491053D01*
X99097101Y-80255239D01*
X99072947Y-80010000D01*
X99097101Y-79764761D01*
X99168634Y-79528947D01*
X99284799Y-79311619D01*
X99441129Y-79121129D01*
X99631619Y-78964799D01*
X99848947Y-78848634D01*
X100084761Y-78777101D01*
X100268543Y-78759000D01*
X100391457Y-78759000D01*
X100575239Y-78777101D01*
X100575239Y-78777101D01*
G37*
G36*
X86621727Y-77516552D02*
G01*
X86724903Y-77537075D01*
X86952571Y-77631378D01*
X87157466Y-77768285D01*
X87331715Y-77942534D01*
X87443228Y-78109425D01*
X87468623Y-78147431D01*
X87562925Y-78375097D01*
X87611000Y-78616786D01*
X87611000Y-78863214D01*
X87562925Y-79104903D01*
X87468622Y-79332571D01*
X87331715Y-79537466D01*
X87157466Y-79711715D01*
X86952571Y-79848622D01*
X86952570Y-79848623D01*
X86952569Y-79848623D01*
X86724903Y-79942925D01*
X86483214Y-79991000D01*
X86236786Y-79991000D01*
X85995097Y-79942925D01*
X85767431Y-79848623D01*
X85767430Y-79848623D01*
X85767429Y-79848622D01*
X85562534Y-79711715D01*
X85388285Y-79537466D01*
X85251378Y-79332571D01*
X85157075Y-79104903D01*
X85109000Y-78863214D01*
X85109000Y-78616786D01*
X85157075Y-78375097D01*
X85251377Y-78147431D01*
X85276772Y-78109425D01*
X85388285Y-77942534D01*
X85562534Y-77768285D01*
X85767429Y-77631378D01*
X85995097Y-77537075D01*
X86098273Y-77516552D01*
X86236786Y-77489000D01*
X86483214Y-77489000D01*
X86621727Y-77516552D01*
X86621727Y-77516552D01*
G37*
G36*
X66419487Y-74948996D02*
G01*
X66656253Y-75047068D01*
X66656255Y-75047069D01*
X66869339Y-75189447D01*
X67050553Y-75370661D01*
X67192932Y-75583747D01*
X67291004Y-75820513D01*
X67341000Y-76071861D01*
X67341000Y-76328139D01*
X67291004Y-76579487D01*
X67192932Y-76816253D01*
X67192931Y-76816255D01*
X67050553Y-77029339D01*
X66869339Y-77210553D01*
X66656255Y-77352931D01*
X66656254Y-77352932D01*
X66656253Y-77352932D01*
X66419487Y-77451004D01*
X66168139Y-77501000D01*
X65911861Y-77501000D01*
X65660513Y-77451004D01*
X65423747Y-77352932D01*
X65423746Y-77352932D01*
X65423745Y-77352931D01*
X65210661Y-77210553D01*
X65029447Y-77029339D01*
X64887069Y-76816255D01*
X64887068Y-76816253D01*
X64788996Y-76579487D01*
X64739000Y-76328139D01*
X64739000Y-76071861D01*
X64788996Y-75820513D01*
X64887068Y-75583747D01*
X65029447Y-75370661D01*
X65210661Y-75189447D01*
X65423745Y-75047069D01*
X65423747Y-75047068D01*
X65660513Y-74948996D01*
X65911861Y-74899000D01*
X66168139Y-74899000D01*
X66419487Y-74948996D01*
X66419487Y-74948996D01*
G37*
M02*
